# xmcd
#
# Track frame offsets: 
#        150
#        13559
#        24885
#        36588
#        50349
#        62676
#        74148
#        86405
#        97425
#        110781
#        123975
#        136625
#        148112
#        161518
#        173541
#        188047
#        201351
#        214972
#        227556
#        241834
#        253800
#        268216
#        281282
#        294454
#        307093
#
# Disc length: 4271 seconds
#
# Revision: 1
# Processed by: cddbd v1.5.2PL0 Copyright (c) Steve Scherf et al.
# Submitted via: ExactAudioCopyFreeDBPlugin 1.0
#
DISCID=7a10ad19
DTITLE=NOT NOW - Memphis Blues Essential (disc-2)
DYEAR=2012
DGENRE=Blues
TTITLE0=Before Long - Jimmy [DeBerry] and Walter [Horton] (1953, Sun 1
TTITLE0=53)
TTITLE1=I Feel Like A Million - Joe Hill Louis (1950, Modern 20-795) S
TTITLE1=UN rec.
TTITLE2=Ain't That Right - Eddie Snow (1953, Sun 226)
TTITLE3=Cotton Crop Blues - James Cotton (1954, Sun 206)
TTITLE4=Save That Money - Rufus Thomas Jr (1953, Sun 188)
TTITLE5=K.C. Moan - Memphis Jug Band (1929, Victor 38558)
TTITLE6=How Many More Years? - Howlin' Wolf (1951, Chess 1479) SUN rec
TTITLE6=
TTITLE7=Feel So Worried - Sammie Lewis and Willie Johnson (1955, Sun 218
TTITLE7=)
TTITLE8=The Girl I Love, She Got Long Curly Hair - Sleepy John Estes (
TTITLE8=1929, Bluebird B7849)
TTITLE9=Feelin' Good - Little Junior's Blue Flames (1953, Sun 187)
TTITLE10=Seems Like A Million Years - Willie Nix (1959, Sun 179)
TTITLE11=Ace's Wild - Johnny Ace (1953, Duke 112)
TTITLE12=Easy - Jimmy [DeBerry] and Walter [Horton](1953, Sun 180)
TTITLE13=Third Street Woman - Blind Willie Reynolds (1930, Victor 2325
TTITLE13=8)
TTITLE14=I'm Wild About My Lovin' - Jim Jackson (1930, Victor 38525)
TTITLE15=Little Soldier Boy - Doctor Ross (1951, Sun unissued)
TTITLE16=Moanin' The Blues - Allen Shaw (1934, Vocalion 02844)
TTITLE17=Boogie In The Park - Joe Hill Louis (1950, Phillips 9001)
TTITLE18=Fare Thee Well Blues - Joe Callicott (1930, Brunswick 7166)
TTITLE19=Hard Scufflin' Blues - Little Buddy Doyle (1939, OKeh 05771)
TTITLE20=Death Bell Blues - Tom Dickson (1928, OKeh 8590)
TTITLE21=That's No Way To Get Along - Robert Wilkins (1929, Brunswick 
TTITLE21=7125)
TTITLE22=Somebody Told Me - Little Milton (1953, Sun 194)
TTITLE23=Weed Smoking Mama - Charlie Burse (1939)
TTITLE24=Everyday I Have The Blues - B.B. King (1955, RPM 421)
EXTD=
EXTT0=
EXTT1=
EXTT2=
EXTT3=
EXTT4=
EXTT5=
EXTT6=
EXTT7=
EXTT8=
EXTT9=
EXTT10=
EXTT11=
EXTT12=
EXTT13=
EXTT14=
EXTT15=
EXTT16=
EXTT17=
EXTT18=
EXTT19=
EXTT20=
EXTT21=
EXTT22=
EXTT23=
EXTT24=
PLAYORDER=
